<svg version="1.1" id="Layer_1" xmlns="http://www.w3.org/2000/svg" xmlns:xlink="http://www.w3.org/1999/xlink" x="0px" y="0px"
	 width="100%" viewBox="0 0 320 154" enable-background="new 0 0 320 154" xml:space="preserve">
<path fill="#6D959E" opacity="1.000000" stroke="none" 
	d="
M257.000000,155.000000 
	C171.333359,155.000000 86.166710,155.000000 1.000046,155.000000 
	C1.000031,103.666702 1.000031,52.333397 1.000015,1.000073 
	C107.666603,1.000049 214.333206,1.000049 320.999878,1.000024 
	C320.999908,52.333263 320.999908,103.666527 320.999939,154.999893 
	C299.833344,155.000000 278.666656,155.000000 257.000000,155.000000 
M37.000000,92.449844 
	C37.000877,94.947227 36.922379,97.447678 37.018982,99.941353 
	C37.227089,105.313202 45.307835,110.035553 50.003296,107.355888 
	C55.797520,104.049171 61.484608,100.533737 67.023872,96.819023 
	C68.128075,96.078537 68.873962,94.044418 68.904793,92.588173 
	C69.080704,84.279778 68.990158,75.965752 68.990158,68.150459 
	C64.463921,63.705864 60.525551,65.190399 56.468227,68.129776 
	C54.397995,69.629570 51.982941,70.653389 49.655323,71.929871 
	C47.907757,62.806953 52.117920,59.149326 60.856850,61.867844 
	C65.179588,63.212566 68.595787,60.603943 69.054077,56.075123 
	C69.556358,51.111507 66.326347,48.563694 63.040443,46.174759 
	C60.034996,43.989712 57.124413,45.796246 54.390995,47.296444 
	C52.812607,48.162720 51.370358,49.305828 49.739796,50.043552 
	C40.017914,54.442085 35.856041,61.751652 36.890102,72.494102 
	C37.493515,78.762695 37.000000,85.136887 37.000000,92.449844 
M243.000000,96.403648 
	C243.260941,99.326607 242.724747,102.709076 244.054535,105.015892 
	C244.988449,106.635994 248.531662,107.598053 250.788727,107.409081 
	C254.093124,107.132408 255.200531,104.583160 255.102524,101.014847 
	C254.843353,91.578735 255.043716,91.573235 262.868622,88.563431 
	C262.288269,93.306641 264.390930,96.499161 268.996002,96.769623 
	C273.009399,97.005333 275.279266,93.546333 274.898956,87.915848 
	C274.653107,84.276772 273.388733,80.712227 272.677460,77.095261 
	C272.473328,76.057152 272.176788,74.686661 272.651794,73.920830 
	C276.570435,67.602844 274.945801,60.638386 274.843689,53.978832 
	C274.749329,47.826153 266.777588,43.874554 261.462585,46.904015 
	C256.331787,49.828476 251.126419,52.678562 246.310913,56.068584 
	C244.653702,57.235229 243.200638,59.907391 243.145569,61.932346 
	C242.842087,73.090256 243.000198,84.260719 243.000000,96.403648 
M189.000000,91.368073 
	C189.001404,85.036491 188.933807,78.703461 189.066376,72.374626 
	C189.090912,71.203789 189.923523,70.049881 190.383179,68.888161 
	C190.922882,69.013672 191.462585,69.139183 192.002289,69.264694 
	C192.002289,75.380768 192.167526,81.502953 191.941483,87.610657 
	C191.801651,91.388664 193.954178,93.046265 196.973007,92.810982 
	C199.864395,92.585617 203.177841,91.924088 203.057587,87.406898 
	C202.844818,79.414719 202.874817,71.410042 203.053436,63.416180 
	C203.135178,59.758366 201.160049,57.617424 198.209244,56.805202 
	C195.450150,56.045753 191.878998,55.327774 189.554672,56.443867 
	C182.625076,59.771301 176.180466,64.094841 169.446381,67.849907 
	C166.614273,69.429146 164.863983,71.214745 164.939484,74.774956 
	C165.126678,83.601944 165.099686,92.437164 164.956863,101.265808 
	C164.892105,105.268150 167.011063,107.533890 170.496948,107.860229 
	C174.533615,108.238144 176.221939,105.875648 176.078720,101.633636 
	C175.805710,93.547302 175.999512,85.445198 175.999512,77.349640 
	C176.530060,77.237564 177.060608,77.125488 177.591156,77.013412 
	C178.059860,78.447411 178.878021,79.868210 178.932831,81.317848 
	C179.108948,85.976707 178.700424,90.676590 179.163681,95.295830 
	C179.335220,97.006393 180.980133,99.167198 182.542786,99.959183 
	C183.897980,100.646027 187.149994,100.286064 187.684204,99.334099 
	C188.786423,97.369881 188.635437,94.702423 189.000000,91.368073 
M207.000000,71.534775 
	C207.000107,78.863388 207.097672,86.193817 206.961456,93.519890 
	C206.887268,97.510178 207.934799,100.612488 211.792328,102.435646 
	C214.158752,103.554077 216.264938,105.585526 218.713074,106.070305 
	C221.343109,106.591103 225.407150,106.856834 226.793091,105.348305 
	C230.765198,101.024818 233.823303,95.825142 236.971451,90.801178 
	C238.055328,89.071449 238.874481,86.853188 238.909180,84.842461 
	C239.095978,74.019325 238.904388,63.190060 239.043518,52.365486 
	C239.099747,47.991276 236.374146,46.146545 232.929474,46.211777 
	C229.763107,46.271744 226.758255,47.451839 226.893585,52.177444 
	C227.222427,63.660622 227.016083,75.159615 226.992935,86.652168 
	C226.981064,92.548935 225.387527,94.451653 218.999863,96.150429 
	C218.999863,85.435432 218.696884,74.774490 219.141068,64.144753 
	C219.332993,59.551559 217.214859,57.685017 213.530518,57.154537 
	C210.066040,56.655716 207.024765,60.440269 207.002197,64.553520 
	C206.991241,66.552177 207.000107,68.550941 207.000000,71.534775 
M102.000000,79.496048 
	C101.999962,76.341156 101.798706,73.170074 102.050735,70.035454 
	C102.366951,66.102455 100.969994,63.588631 97.416107,61.675983 
	C93.820114,59.740669 90.731598,59.352226 87.416252,62.022266 
	C86.161331,63.032921 84.613403,63.719566 83.127403,64.396690 
	C76.122879,67.588394 72.672379,72.882721 72.962341,80.688148 
	C73.159454,85.994324 73.242790,91.327988 72.932083,96.623245 
	C72.618744,101.963318 74.766525,105.020409 79.567154,107.439949 
	C83.895149,109.621269 86.184418,106.633453 89.289116,105.335670 
	C98.600204,101.443611 103.246849,94.779961 102.021294,84.469009 
	C101.865601,83.159142 102.000000,81.814796 102.000000,79.496048 
M147.148865,61.405552 
	C144.804321,62.908688 142.628906,64.859131 140.080368,65.822723 
	C134.614044,67.889519 132.686020,72.616440 132.208145,77.359184 
	C131.461304,84.771477 131.763657,92.325127 132.087219,99.798721 
	C132.361908,106.143341 140.316147,109.945465 145.799591,106.765961 
	C149.910995,104.382011 154.230652,102.345924 158.257584,99.834274 
	C159.502304,99.057930 160.948074,97.098984 160.769821,95.911438 
	C160.524216,94.275154 159.127869,92.194550 157.665512,91.524879 
	C156.082947,90.800171 153.803497,91.219543 151.925781,91.610062 
	C149.429504,92.129227 147.027756,93.103073 144.496262,93.909996 
	C143.173630,90.059196 145.508850,89.564568 148.131470,88.954391 
	C153.727829,87.652359 158.977203,85.602150 160.294724,79.132301 
	C160.911346,76.104294 160.940643,72.926979 160.969147,69.814888 
	C161.035355,62.586708 154.790497,58.471649 147.148865,61.405552 
M110.426910,51.163574 
	C106.825096,52.387543 105.798424,54.758755 105.887154,58.624195 
	C106.184616,71.583641 105.988510,84.554153 106.005745,97.520401 
	C106.013283,103.191727 108.113861,106.042809 113.427834,107.732147 
	C115.716476,108.459724 125.546326,104.705345 126.691116,102.666428 
	C129.250549,98.107964 125.046577,93.308655 117.998650,92.992340 
	C117.998650,80.876755 117.957748,68.749451 118.018883,56.622654 
	C118.043198,51.800777 115.349518,50.538483 110.426910,51.163574 
z"/>
<path fill="#FFFFFF" opacity="1.000000" stroke="none" 
	d="
M37.000000,91.956711 
	C37.000000,85.136887 37.493515,78.762695 36.890102,72.494102 
	C35.856041,61.751652 40.017914,54.442085 49.739796,50.043552 
	C51.370358,49.305828 52.812607,48.162720 54.390995,47.296444 
	C57.124413,45.796246 60.034996,43.989712 63.040443,46.174759 
	C66.326347,48.563694 69.556358,51.111507 69.054077,56.075123 
	C68.595787,60.603943 65.179588,63.212566 60.856850,61.867844 
	C52.117920,59.149326 47.907757,62.806953 49.655323,71.929871 
	C51.982941,70.653389 54.397995,69.629570 56.468227,68.129776 
	C60.525551,65.190399 64.463921,63.705864 68.990158,68.150459 
	C68.990158,75.965752 69.080704,84.279778 68.904793,92.588173 
	C68.873962,94.044418 68.128075,96.078537 67.023872,96.819023 
	C61.484608,100.533737 55.797520,104.049171 50.003296,107.355888 
	C45.307835,110.035553 37.227089,105.313202 37.018982,99.941353 
	C36.922379,97.447678 37.000877,94.947227 37.000000,91.956711 
M51.654648,81.222549 
	C50.882187,81.038101 50.109726,80.853653 49.149960,80.624481 
	C49.149960,84.922607 49.149960,89.020447 49.149960,93.144775 
	C57.114868,91.259621 57.652145,90.477219 56.523838,82.325134 
	C55.149670,82.126251 53.719353,81.919250 51.654648,81.222549 
z"/>
<path fill="#FFFFFF" opacity="1.000000" stroke="none" 
	d="
M243.000000,95.915268 
	C243.000198,84.260719 242.842087,73.090256 243.145569,61.932346 
	C243.200638,59.907391 244.653702,57.235229 246.310913,56.068584 
	C251.126419,52.678562 256.331787,49.828476 261.462585,46.904015 
	C266.777588,43.874554 274.749329,47.826153 274.843689,53.978832 
	C274.945801,60.638386 276.570435,67.602844 272.651794,73.920830 
	C272.176788,74.686661 272.473328,76.057152 272.677460,77.095261 
	C273.388733,80.712227 274.653107,84.276772 274.898956,87.915848 
	C275.279266,93.546333 273.009399,97.005333 268.996002,96.769623 
	C264.390930,96.499161 262.288269,93.306641 262.868622,88.563431 
	C255.043716,91.573235 254.843353,91.578735 255.102524,101.014847 
	C255.200531,104.583160 254.093124,107.132408 250.788727,107.409081 
	C248.531662,107.598053 244.988449,106.635994 244.054535,105.015892 
	C242.724747,102.709076 243.260941,99.326607 243.000000,95.915268 
M257.434875,77.872223 
	C266.378479,74.093323 262.076447,66.586220 263.017822,60.031982 
	C257.072205,62.059994 253.674942,64.950233 254.942535,71.225380 
	C255.327362,73.130379 254.950790,75.180077 255.116257,77.147240 
	C255.144608,77.484238 256.148804,77.739159 257.434875,77.872223 
z"/>
<path fill="#FFFFFF" opacity="1.000000" stroke="none" 
	d="
M189.000000,91.846169 
	C188.635437,94.702423 188.786423,97.369881 187.684204,99.334099 
	C187.149994,100.286064 183.897980,100.646027 182.542786,99.959183 
	C180.980133,99.167198 179.335220,97.006393 179.163681,95.295830 
	C178.700424,90.676590 179.108948,85.976707 178.932831,81.317848 
	C178.878021,79.868210 178.059860,78.447411 177.591156,77.013412 
	C177.060608,77.125488 176.530060,77.237564 175.999512,77.349640 
	C175.999512,85.445198 175.805710,93.547302 176.078720,101.633636 
	C176.221939,105.875648 174.533615,108.238144 170.496948,107.860229 
	C167.011063,107.533890 164.892105,105.268150 164.956863,101.265808 
	C165.099686,92.437164 165.126678,83.601944 164.939484,74.774956 
	C164.863983,71.214745 166.614273,69.429146 169.446381,67.849907 
	C176.180466,64.094841 182.625076,59.771301 189.554672,56.443867 
	C191.878998,55.327774 195.450150,56.045753 198.209244,56.805202 
	C201.160049,57.617424 203.135178,59.758366 203.053436,63.416180 
	C202.874817,71.410042 202.844818,79.414719 203.057587,87.406898 
	C203.177841,91.924088 199.864395,92.585617 196.973007,92.810982 
	C193.954178,93.046265 191.801651,91.388664 191.941483,87.610657 
	C192.167526,81.502953 192.002289,75.380768 192.002289,69.264694 
	C191.462585,69.139183 190.922882,69.013672 190.383179,68.888161 
	C189.923523,70.049881 189.090912,71.203789 189.066376,72.374626 
	C188.933807,78.703461 189.001404,85.036491 189.000000,91.846169 
z"/>
<path fill="#FFFFFF" opacity="1.000000" stroke="none" 
	d="
M207.000000,71.042213 
	C207.000107,68.550941 206.991241,66.552177 207.002197,64.553520 
	C207.024765,60.440269 210.066040,56.655716 213.530518,57.154537 
	C217.214859,57.685017 219.332993,59.551559 219.141068,64.144753 
	C218.696884,74.774490 218.999863,85.435432 218.999863,96.150429 
	C225.387527,94.451653 226.981064,92.548935 226.992935,86.652168 
	C227.016083,75.159615 227.222427,63.660622 226.893585,52.177444 
	C226.758255,47.451839 229.763107,46.271744 232.929474,46.211777 
	C236.374146,46.146545 239.099747,47.991276 239.043518,52.365486 
	C238.904388,63.190060 239.095978,74.019325 238.909180,84.842461 
	C238.874481,86.853188 238.055328,89.071449 236.971451,90.801178 
	C233.823303,95.825142 230.765198,101.024818 226.793091,105.348305 
	C225.407150,106.856834 221.343109,106.591103 218.713074,106.070305 
	C216.264938,105.585526 214.158752,103.554077 211.792328,102.435646 
	C207.934799,100.612488 206.887268,97.510178 206.961456,93.519890 
	C207.097672,86.193817 207.000107,78.863388 207.000000,71.042213 
z"/>
<path fill="#FFFFFF" opacity="1.000000" stroke="none" 
	d="
M102.000000,79.991234 
	C102.000000,81.814796 101.865601,83.159142 102.021294,84.469009 
	C103.246849,94.779961 98.600204,101.443611 89.289116,105.335670 
	C86.184418,106.633453 83.895149,109.621269 79.567154,107.439949 
	C74.766525,105.020409 72.618744,101.963318 72.932083,96.623245 
	C73.242790,91.327988 73.159454,85.994324 72.962341,80.688148 
	C72.672379,72.882721 76.122879,67.588394 83.127403,64.396690 
	C84.613403,63.719566 86.161331,63.032921 87.416252,62.022266 
	C90.731598,59.352226 93.820114,59.740669 97.416107,61.675983 
	C100.969994,63.588631 102.366951,66.102455 102.050735,70.035454 
	C101.798706,73.170074 101.999962,76.341156 102.000000,79.991234 
M89.999153,88.100327 
	C89.999153,83.677223 89.999153,79.254112 89.999153,74.660133 
	C84.738083,76.620621 83.051323,85.707397 86.421005,94.923752 
	C87.874809,92.512840 88.935516,90.753807 89.999153,88.100327 
z"/>
<path fill="#FFFFFF" opacity="1.000000" stroke="none" 
	d="
M147.494995,61.229366 
	C154.790497,58.471649 161.035355,62.586708 160.969147,69.814888 
	C160.940643,72.926979 160.911346,76.104294 160.294724,79.132301 
	C158.977203,85.602150 153.727829,87.652359 148.131470,88.954391 
	C145.508850,89.564568 143.173630,90.059196 144.496262,93.909996 
	C147.027756,93.103073 149.429504,92.129227 151.925781,91.610062 
	C153.803497,91.219543 156.082947,90.800171 157.665512,91.524879 
	C159.127869,92.194550 160.524216,94.275154 160.769821,95.911438 
	C160.948074,97.098984 159.502304,99.057930 158.257584,99.834274 
	C154.230652,102.345924 149.910995,104.382011 145.799591,106.765961 
	C140.316147,109.945465 132.361908,106.143341 132.087219,99.798721 
	C131.763657,92.325127 131.461304,84.771477 132.208145,77.359184 
	C132.686020,72.616440 134.614044,67.889519 140.080368,65.822723 
	C142.628906,64.859131 144.804321,62.908688 147.494995,61.229366 
M144.940826,76.575233 
	C144.243179,77.807472 143.545532,79.039711 142.564850,80.771843 
	C149.118668,79.969696 150.797379,77.887344 150.264267,71.432899 
	C148.417938,73.199287 146.931763,74.621109 144.940826,76.575233 
z"/>
<path fill="#FFFFFF" opacity="1.000000" stroke="none" 
	d="
M110.792122,51.063099 
	C115.349518,50.538483 118.043198,51.800777 118.018883,56.622654 
	C117.957748,68.749451 117.998650,80.876755 117.998650,92.992340 
	C125.046577,93.308655 129.250549,98.107964 126.691116,102.666428 
	C125.546326,104.705345 115.716476,108.459724 113.427834,107.732147 
	C108.113861,106.042809 106.013283,103.191727 106.005745,97.520401 
	C105.988510,84.554153 106.184616,71.583641 105.887154,58.624195 
	C105.798424,54.758755 106.825096,52.387543 110.792122,51.063099 
z"/>
<path fill="#6D959E" opacity="1.000000" stroke="none" 
	d="
M51.971840,81.467400 
	C53.719353,81.919250 55.149670,82.126251 56.523838,82.325134 
	C57.652145,90.477219 57.114868,91.259621 49.149960,93.144775 
	C49.149960,89.020447 49.149960,84.922607 49.149960,80.624481 
	C50.109726,80.853653 50.882187,81.038101 51.971840,81.467400 
z"/>
<path fill="#6D959E" opacity="1.000000" stroke="none" 
	d="
M257.068542,77.952110 
	C256.148804,77.739159 255.144608,77.484238 255.116257,77.147240 
	C254.950790,75.180077 255.327362,73.130379 254.942535,71.225380 
	C253.674942,64.950233 257.072205,62.059994 263.017822,60.031982 
	C262.076447,66.586220 266.378479,74.093323 257.068542,77.952110 
z"/>
<path fill="#6D959E" opacity="1.000000" stroke="none" 
	d="
M89.997688,88.547554 
	C88.935516,90.753807 87.874809,92.512840 86.421005,94.923752 
	C83.051323,85.707397 84.738083,76.620621 89.999153,74.660133 
	C89.999153,79.254112 89.999153,83.677223 89.997688,88.547554 
z"/>
<path fill="#6D959E" opacity="1.000000" stroke="none" 
	d="
M145.193207,76.309082 
	C146.931763,74.621109 148.417938,73.199287 150.264267,71.432899 
	C150.797379,77.887344 149.118668,79.969696 142.564850,80.771843 
	C143.545532,79.039711 144.243179,77.807472 145.193207,76.309082 
z"/>
</svg>